custom-analysis
version=1
nRows=12
nColumns=42
inDegrees=no

This file contains tibia displacement and acting force.

Units are S.I. units (seconds, meters, Newtons, ...)
Angles are in degrees.

endheader
time	APT	SIT	knee_angle	aACL_R_force	pACL_R_force	aPCL_R_force	pPCL_R_force	aMCL_R_force	mMCL_R_force	pMCL_R_force	aLCL_R_force	mLCL_R_force	pLCL_R_force	aACL_R_length	pACL_R_length	aPCL_R_length	pPCL_R_length	aMCL_R_length	mMCL_R_length	pMCL_R_length	aLCL_R_length	mLCL_R_length	pLCL_R_length	aACL_R_strain	pACL_R_strain	aPCL_R_strain	pPCL_R_strain	aMCL_R_strain	mMCL_R_strain	pMCL_R_strain	aLCL_R_strain	mLCL_R_strain	pLCL_R_strain	femur_lat_meniscii_force_r	femur_lat_meniscii_torque_r	femur_med_meniscii_force_r	femur_med_meniscii_torque_r	femur_lat_tibia_force_r	femur_lat_tibia_torque_r	femur_med_tibia_force_r	femur_med_tibia_torque_r
      0.19280974	      0.00085147	     -0.00024110	      1.66574369	     16.69489542	     32.76952159	      0.00000000	      0.00000000	      0.00000000	      4.53429510	     16.81992428	      1.41540707	      0.00000000	      3.40506378	      0.03351175	      0.02790699	      0.02900629	      0.02944297	      0.05622635	      0.06115353	      0.06351072	      0.05706094	      0.05556482	      0.05374512	      0.04706227	      0.05873907	     -0.06718098	     -0.02143150	     -0.03103123	      0.02274543	      0.04582268	      0.01936047	     -0.01338426	      0.02679308	     99.68140308	     20.16022681	     86.25974801	     16.44534087	      0.00000000	      0.00000000	      0.00000000	      0.00000000
      0.19627045	      0.00085532	     -0.00024270	      1.66574369	     16.90138487	     32.97622377	      0.00000000	      0.00000000	      0.00000000	      4.89387733	     17.20958165	      2.19566137	      0.00000000	      4.18760129	      0.03351270	      0.02790718	      0.02900663	      0.02944383	      0.05623154	      0.06115852	      0.06351566	      0.05705846	      0.05556233	      0.05374261	      0.04709205	      0.05874651	     -0.06716980	     -0.02140318	     -0.03094177	      0.02282885	      0.04590400	      0.01931609	     -0.01342835	      0.02674507	     99.39156789	     20.11509632	     84.08279324	     16.12168257	      0.00000000	      0.00000000	      0.00000000	      0.00000000
      0.19973117	      0.00085867	     -0.00024601	      1.66574369	     16.64246707	     32.73965591	      0.00000000	      0.00000000	      0.00000000	      3.84375460	     16.22131376	      0.95283197	      0.00000000	      2.95577210	      0.03351497	      0.02790873	      0.02900869	      0.02944637	      0.05623787	      0.06116467	      0.06352177	      0.05705840	      0.05556229	      0.05374255	      0.04716279	      0.05880538	     -0.06710357	     -0.02131875	     -0.03083272	      0.02293182	      0.04600471	      0.01931496	     -0.01342909	      0.02674390	    102.19442372	     20.68795698	     84.28010700	     16.31174524	      0.00000000	      0.00000000	      0.00000000	      0.00000000
      0.20255215	      0.00086208	     -0.00024648	      1.66574369	     17.03505019	     33.13098889	      0.00000000	      0.00000000	      0.00000000	      4.81179694	     17.19585754	      2.47327891	      0.00000000	      4.47891971	      0.03351561	      0.02790888	      0.02900798	      0.02944599	      0.05624051	      0.06116718	      0.06352431	      0.05705628	      0.05556021	      0.05374046	      0.04718288	      0.05881083	     -0.06712664	     -0.02133123	     -0.03078716	      0.02297379	      0.04604652	      0.01927708	     -0.01346607	      0.02670397	    100.25197545	     20.20701639	     82.02737334	     15.92059570	      0.00000000	      0.00000000	      0.00000000	      0.00000000
      0.20537313	      0.00086533	     -0.00024897	      1.66574369	     16.94803640	     33.06739282	      0.00000000	      0.00000000	      0.00000000	      4.25152395	     16.68236149	      1.79184398	      0.00000000	      3.81255983	      0.03351780	      0.02791055	      0.02900915	      0.02944753	      0.05624488	      0.06117144	      0.06352860	      0.05705657	      0.05556057	      0.05374082	      0.04725135	      0.05887424	     -0.06708896	     -0.02128015	     -0.03071187	      0.02304490	      0.04611711	      0.01928235	     -0.01345972	      0.02671083	    101.89583921	     20.51189558	     82.22859833	     16.08381107	      0.00000000	      0.00000000	      0.00000000	      0.00000000
      0.20881858	      0.00087027	     -0.00025058	      1.66574369	     17.23969982	     33.37954168	      0.00000000	      0.00000000	      0.00000000	      4.82723697	     17.28136906	      2.74788535	      0.00000000	      4.77840966	      0.03351994	      0.02791208	      0.02900882	      0.02944763	      0.05624854	      0.06117495	      0.06353224	      0.05705565	      0.05555976	      0.05374002	      0.04731807	      0.05893223	     -0.06709964	     -0.02127685	     -0.03064875	      0.02310375	      0.04617698	      0.01926584	     -0.01347412	      0.02669561	    100.84351992	     20.28943648	     80.86256559	     15.94636301	      0.00000000	      0.00000000	      0.00000000	      0.00000000
      0.21226404	      0.00087478	     -0.00025443	      1.66574369	     16.92713050	     33.12046905	      0.00000000	      0.00000000	      0.00000000	      3.58997595	     16.10318602	      1.19131696	      0.00000000	      3.23417221	      0.03352366	      0.02791518	      0.02901072	      0.02944997	      0.05625406	      0.06118035	      0.06353774	      0.05705754	      0.05556178	      0.05374207	      0.04743425	      0.05904984	     -0.06703832	     -0.02119901	     -0.03055368	      0.02319393	      0.04626769	      0.01929965	     -0.01343813	      0.02673478	    103.71897635	     20.89042629	     82.07407740	     16.34077475	      0.00000000	      0.00000000	      0.00000000	      0.00000000
      0.21497980	      0.00087889	     -0.00025492	      1.66574369	     17.34156991	     33.55341821	      0.00000000	      0.00000000	      0.00000000	      4.65612431	     17.16393493	      2.84708231	      0.00000000	      4.88891959	      0.03352505	      0.02791617	      0.02900962	      0.02944915	      0.05625568	      0.06118186	      0.06353940	      0.05705657	      0.05556093	      0.05374124	      0.04747780	      0.05908742	     -0.06707379	     -0.02122622	     -0.03052586	      0.02321931	      0.04629502	      0.01928228	     -0.01345335	      0.02671883	    101.07614797	     20.32577164	     80.28856288	     16.04405636	      0.00000000	      0.00000000	      0.00000000	      0.00000000
      0.21769557	      0.00088232	     -0.00025733	      1.66574369	     17.24368606	     33.49637737	      0.00000000	      0.00000000	      0.00000000	      4.14466827	     16.68365017	      2.27914737	      0.00000000	      4.32809716	      0.03352766	      0.02791838	      0.02901056	      0.02945037	      0.05625894	      0.06118505	      0.06354270	      0.05705795	      0.05556243	      0.05374276	      0.04755946	      0.05917137	     -0.06704350	     -0.02118565	     -0.03046968	      0.02327251	      0.04634937	      0.01930698	     -0.01342673	      0.02674797	    102.02833979	     20.53271779	     80.72576640	     16.22289368	      0.00000000	      0.00000000	      0.00000000	      0.00000000
      0.22128283	      0.00088700	     -0.00025910	      1.66574369	     17.46005973	     33.75465655	      0.00000000	      0.00000000	      0.00000000	      4.53380246	     17.08599134	      3.03426766	      0.00000000	      5.08827225	      0.03353029	      0.02792056	      0.02901042	      0.02945054	      0.05626153	      0.06118755	      0.06354540	      0.05705866	      0.05556329	      0.05374367	      0.04764150	      0.05925392	     -0.06704820	     -0.02118012	     -0.03042490	      0.02331441	      0.04639378	      0.01931956	     -0.01341133	      0.02676528	    100.64612248	     20.25713597	     79.95806146	     16.13955853	      0.00000000	      0.00000000	      0.00000000	      0.00000000
      0.22487009	      0.00089090	     -0.00026277	      1.66574369	     17.14654595	     33.50627865	      0.00000000	      0.00000000	      0.00000000	      3.29325966	     15.89511250	      1.50777123	      0.00000000	      3.57561838	      0.03353412	      0.02792397	      0.02901235	      0.02945276	      0.05626560	      0.06119155	      0.06354958	      0.05706191	      0.05556672	      0.05374714	      0.04776131	      0.05938328	     -0.06698594	     -0.02110630	     -0.03035477	      0.02338131	      0.04646254	      0.01937779	     -0.01335046	      0.02683162	    102.89903623	     20.73105048	     81.54355073	     16.57016647	      0.00000000	      0.00000000	      0.00000000	      0.00000000
      0.22756729	      0.00089436	     -0.00026299	      1.66574369	     17.56295067	     33.94737989	      0.00000000	      0.00000000	      0.00000000	      4.35568064	     16.94512158	      3.17970043	      0.00000000	      5.24913523	      0.03353546	      0.02792507	      0.02901121	      0.02945177	      0.05626592	      0.06119182	      0.06355003	      0.05706192	      0.05556686	      0.05374732	      0.04780313	      0.05942517	     -0.06702255	     -0.02113903	     -0.03034930	      0.02338576	      0.04646993	      0.01937793	     -0.01334792	      0.02683509	     99.84715435	     20.11999084	     80.15560228	     16.31612310	      0.00000000	      0.00000000	      0.00000000	      0.00000000
